<svg width="397" height="88" viewBox="0 0 397 88" fill="none" xmlns="http://www.w3.org/2000/svg">
<path d="M367.811 87.2C350.411 87.2 336.611 73.4 336.611 56.6C336.611 39.8 350.411 26 367.211 26C383.411 26 396.611 39.2 396.611 55.4C396.611 59.6 396.011 62.6 396.011 62.6H353.411C355.211 68 360.011 72.8 369.011 72.8C379.211 72.8 384.611 66.2 384.611 66.2L393.011 77.6C393.011 77.6 384.011 87.2 367.811 87.2ZM353.411 50.6H379.811C378.011 45.2 373.211 40.4 366.611 40.4C360.011 40.4 355.211 45.2 353.411 50.6Z" fill="#fff"/>
<path d="M278.992 86V2H295.192V51.2L316.192 27.2H335.392L313.792 51.8L336.592 86H317.992L302.992 63.2L295.192 72.2V86H278.992Z" fill="#fff"/>
<path d="M230.988 87.2C220.188 87.2 212.988 80 212.988 70.4C212.988 60.8 219.588 53.48 230.388 51.56L248.988 48.2C248.388 44 244.788 40.4 238.788 40.4C230.388 40.4 225.588 47 225.588 47L215.988 37.4C215.988 37.4 224.388 26 239.988 26C254.988 26 265.188 36.2 265.188 49.4V86C265.188 86 252.588 86 248.988 86V78.8H248.388C248.388 78.8 242.388 87.2 230.988 87.2ZM236.388 74C243.588 74 248.988 68.6 248.988 60.8V59.6L235.788 62C231.588 62.72 229.188 65 229.188 68C229.188 71.6 231.588 74 236.388 74Z" fill="#fff"/>
<path d="M185.941 86V2H202.141V86H185.941Z" fill="#fff"/>
<path d="M164.294 87.1994C152.294 87.1994 144.494 79.3994 144.494 65.5994V43.3994H134.294V28.3994H139.694C143.894 28.3994 146.294 25.9994 146.294 21.1994V10.3994H160.694V28.3994H173.894V43.3994H160.694V63.1994C160.694 68.5994 163.694 71.5994 168.494 71.5994C172.094 71.5994 175.094 70.3994 175.094 70.3994V85.3994C175.094 85.3994 170.294 87.1994 164.294 87.1994Z" fill="#fff"/>
<path d="M93.4609 87.2C82.6609 87.2 75.4609 80 75.4609 70.4C75.4609 60.8 82.0609 53.48 92.8609 51.56L111.461 48.2C110.861 44 107.261 40.4 101.261 40.4C92.8609 40.4 88.0609 47 88.0609 47L78.4609 37.4C78.4609 37.4 86.8609 26 102.461 26C117.461 26 127.661 36.2 127.661 49.4V86C127.661 86 115.061 86 111.461 86V78.8H110.861C110.861 78.8 104.861 87.2 93.4609 87.2ZM98.8609 74C106.061 74 111.461 68.6 111.461 60.8V59.6L98.2609 62C94.0609 62.72 91.6609 65 91.6609 68C91.6609 71.6 94.0609 74 98.8609 74Z" fill="#fff"/>
<path d="M48.4141 86V2H64.6141V86H48.4141Z" fill="#fff"/>
<path d="M9.40002 85.9998V43.3998H0.400024V28.3998H9.40002V22.3998C9.40002 8.59981 17.2 0.799805 29.2 0.799805C35.2 0.799805 40 2.5998 40 2.5998V17.5998C40 17.5998 37 16.3998 33.4 16.3998C28.6 16.3998 25.6 19.3998 25.6 24.7998V28.3998H38.8V43.3998H25.6V85.9998H9.40002Z" fill="#fff"/>
</svg>
