<?xml version="1.0" standalone="no"?>
<!DOCTYPE svg PUBLIC "-//W3C//DTD SVG 20010904//EN"
 "http://www.w3.org/TR/2001/REC-SVG-20010904/DTD/svg10.dtd">
<svg version="1.0" xmlns="http://www.w3.org/2000/svg"
 width="700.000000pt" height="700.000000pt" viewBox="0 0 700.000000 700.000000"
 preserveAspectRatio="xMidYMid meet">
<metadata>
Created by potrace 1.14, written by Peter Selinger 2001-2017
</metadata>
<g transform="translate(0.000000,700.000000) scale(0.100000,-0.100000)"
fill="#000000" stroke="none">
<path d="M3173 5365 c-262 -47 -459 -192 -572 -420 -78 -157 -111 -347 -111
-632 l0 -143 -195 0 -195 0 0 -325 0 -325 195 0 195 0 2 -932 3 -933 353 -3
352 -2 0 935 0 935 290 0 290 0 0 325 0 325 -287 2 -288 3 1 130 c2 157 22
222 91 296 68 73 125 93 258 93 99 0 158 -9 258 -40 16 -5 17 15 17 324 l0
329 -107 26 c-195 48 -399 60 -550 32z"/>
<path d="M4200 3490 l0 -1840 355 0 355 0 0 1840 0 1840 -355 0 -355 0 0
-1840z"/>
</g>
</svg>
